<?xml version="1.0" encoding="UTF-8"?>
<svg xmlns="http://www.w3.org/2000/svg" xmlns:xlink="http://www.w3.org/1999/xlink" width="135px" height="49px" viewBox="0 0 134 49" version="1.1">
<g id="surface1">
<path style=" stroke:none;fill-rule:nonzero;fill:rgb(100%,100%,100%);fill-opacity:1;" d="M 22.554688 37.511719 C 22.558594 38.050781 22.453125 38.582031 22.242188 39.074219 C 22.042969 39.550781 21.757812 39.980469 21.394531 40.347656 C 21.027344 40.710938 20.597656 41.003906 20.121094 41.207031 C 19.632812 41.417969 19.105469 41.527344 18.574219 41.523438 L 14.589844 41.523438 L 14.589844 20.929688 L 18.574219 20.929688 C 19.105469 20.925781 19.632812 21.03125 20.121094 21.246094 C 20.597656 21.441406 21.03125 21.730469 21.394531 22.097656 C 21.757812 22.464844 22.046875 22.898438 22.242188 23.378906 C 22.453125 23.871094 22.558594 24.402344 22.554688 24.9375 Z M 20.257812 37.511719 L 20.257812 24.9375 C 20.261719 24.714844 20.21875 24.492188 20.132812 24.28125 C 20.046875 24.074219 19.917969 23.886719 19.757812 23.734375 C 19.601562 23.574219 19.417969 23.449219 19.214844 23.367188 C 19.011719 23.28125 18.792969 23.242188 18.574219 23.242188 L 16.894531 23.242188 L 16.894531 39.1875 L 18.574219 39.1875 C 18.792969 39.1875 19.011719 39.148438 19.214844 39.0625 C 19.417969 38.976562 19.601562 38.855469 19.757812 38.695312 C 19.917969 38.542969 20.046875 38.355469 20.132812 38.152344 C 20.21875 37.945312 20.261719 37.722656 20.257812 37.496094 Z M 32.167969 37.882812 C 32.179688 38.664062 31.960938 39.429688 31.542969 40.089844 C 31.125 40.746094 30.519531 41.261719 29.808594 41.578125 C 29.324219 41.785156 28.800781 41.894531 28.269531 41.894531 C 27.742188 41.894531 27.21875 41.785156 26.734375 41.578125 C 26.269531 41.363281 25.855469 41.066406 25.503906 40.695312 C 25.148438 40.328125 24.867188 39.894531 24.679688 39.421875 C 24.476562 38.925781 24.375 38.394531 24.382812 37.859375 L 24.382812 29.09375 C 24.382812 28.304688 24.613281 27.535156 25.046875 26.878906 C 25.480469 26.21875 26.09375 25.707031 26.816406 25.398438 C 27.304688 25.1875 27.832031 25.078125 28.363281 25.082031 C 28.894531 25.082031 29.421875 25.183594 29.914062 25.382812 C 30.390625 25.582031 30.820312 25.875 31.179688 26.242188 C 31.550781 26.636719 31.839844 27.101562 32.03125 27.609375 C 32.25 28.191406 32.359375 28.8125 32.347656 29.4375 C 32.363281 30.300781 32.269531 31.164062 32.0625 32.003906 C 31.882812 32.675781 31.582031 33.3125 31.179688 33.878906 C 30.683594 34.527344 30.082031 35.082031 29.398438 35.523438 C 28.523438 36.097656 27.621094 36.621094 26.6875 37.089844 L 26.6875 37.84375 C 26.675781 38.289062 26.828125 38.71875 27.121094 39.050781 C 27.273438 39.203125 27.449219 39.324219 27.648438 39.40625 C 27.84375 39.492188 28.054688 39.53125 28.265625 39.53125 C 28.480469 39.53125 28.691406 39.492188 28.886719 39.40625 C 29.085938 39.324219 29.261719 39.203125 29.414062 39.050781 C 29.71875 38.726562 29.882812 38.292969 29.871094 37.84375 L 29.871094 37.589844 L 32.175781 36.835938 L 32.175781 37.867188 Z M 30.035156 29.589844 C 30.066406 29.292969 30.035156 28.988281 29.949219 28.703125 C 29.863281 28.414062 29.722656 28.148438 29.53125 27.917969 C 29.378906 27.761719 29.195312 27.640625 28.992188 27.558594 C 28.789062 27.480469 28.574219 27.4375 28.355469 27.441406 C 28.132812 27.433594 27.910156 27.476562 27.703125 27.566406 C 27.5 27.652344 27.3125 27.78125 27.160156 27.945312 C 27.003906 28.101562 26.882812 28.285156 26.800781 28.488281 C 26.71875 28.691406 26.679688 28.910156 26.679688 29.128906 L 26.679688 34.460938 C 27.234375 34.191406 27.761719 33.863281 28.253906 33.488281 C 28.628906 33.199219 28.96875 32.859375 29.261719 32.484375 C 29.554688 32.09375 29.765625 31.644531 29.878906 31.164062 C 29.988281 30.648438 30.039062 30.121094 30.035156 29.589844 Z M 42.085938 37.882812 C 42.089844 38.417969 41.984375 38.949219 41.773438 39.441406 C 41.578125 39.921875 41.289062 40.355469 40.917969 40.71875 C 40.554688 41.082031 40.125 41.375 39.652344 41.578125 C 39.164062 41.789062 38.636719 41.898438 38.105469 41.894531 C 37.765625 41.941406 37.421875 41.882812 37.121094 41.722656 C 36.820312 41.5625 36.578125 41.3125 36.425781 41.003906 L 36.425781 46.734375 L 34.121094 46.734375 L 34.121094 25.453125 L 35.617188 25.453125 L 36.136719 26.207031 C 36.34375 25.910156 36.636719 25.6875 36.972656 25.570312 C 37.316406 25.414062 37.6875 25.328125 38.066406 25.316406 C 38.597656 25.3125 39.128906 25.417969 39.617188 25.632812 C 40.089844 25.835938 40.519531 26.125 40.882812 26.492188 C 41.25 26.851562 41.539062 27.285156 41.734375 27.765625 C 41.945312 28.257812 42.050781 28.789062 42.050781 29.328125 L 42.050781 37.890625 Z M 39.78125 37.882812 L 39.78125 29.320312 C 39.777344 28.871094 39.601562 28.441406 39.289062 28.128906 C 38.972656 27.8125 38.546875 27.632812 38.105469 27.628906 C 37.882812 27.625 37.660156 27.667969 37.457031 27.753906 C 37.253906 27.839844 37.066406 27.964844 36.914062 28.128906 C 36.757812 28.285156 36.636719 28.46875 36.550781 28.675781 C 36.46875 28.878906 36.425781 29.097656 36.425781 29.320312 L 36.425781 37.882812 C 36.421875 38.105469 36.464844 38.328125 36.546875 38.535156 C 36.632812 38.742188 36.753906 38.929688 36.914062 39.089844 C 37.070312 39.246094 37.253906 39.371094 37.460938 39.453125 C 37.664062 39.535156 37.882812 39.578125 38.105469 39.570312 C 38.324219 39.574219 38.542969 39.535156 38.746094 39.449219 C 38.949219 39.367188 39.132812 39.246094 39.285156 39.089844 C 39.449219 38.933594 39.574219 38.746094 39.660156 38.539062 C 39.746094 38.328125 39.785156 38.105469 39.78125 37.882812 Z M 51.609375 37.882812 C 51.613281 38.417969 51.507812 38.949219 51.300781 39.441406 C 51.101562 39.917969 50.8125 40.351562 50.449219 40.71875 C 50.082031 41.082031 49.648438 41.371094 49.175781 41.578125 C 48.6875 41.789062 48.160156 41.898438 47.625 41.894531 C 47.09375 41.894531 46.566406 41.789062 46.078125 41.578125 C 45.605469 41.371094 45.175781 41.082031 44.8125 40.71875 C 44.449219 40.351562 44.160156 39.917969 43.957031 39.441406 C 43.746094 38.949219 43.640625 38.417969 43.644531 37.882812 L 43.644531 29.113281 C 43.640625 28.578125 43.746094 28.046875 43.957031 27.554688 C 44.363281 26.59375 45.121094 25.828125 46.078125 25.421875 C 46.566406 25.210938 47.09375 25.101562 47.625 25.105469 C 48.160156 25.101562 48.6875 25.207031 49.175781 25.421875 C 50.132812 25.824219 50.898438 26.589844 51.300781 27.554688 C 51.507812 28.050781 51.609375 28.578125 51.609375 29.113281 Z M 49.3125 37.882812 L 49.3125 29.113281 C 49.3125 28.894531 49.265625 28.675781 49.179688 28.472656 C 49.09375 28.269531 48.96875 28.085938 48.808594 27.933594 C 48.65625 27.769531 48.472656 27.640625 48.269531 27.554688 C 48.066406 27.46875 47.847656 27.421875 47.625 27.425781 C 47.402344 27.421875 47.183594 27.464844 46.976562 27.550781 C 46.773438 27.636719 46.589844 27.769531 46.4375 27.933594 C 46.28125 28.085938 46.15625 28.269531 46.074219 28.472656 C 45.992188 28.675781 45.949219 28.894531 45.949219 29.113281 L 45.949219 37.882812 C 45.945312 38.105469 45.984375 38.328125 46.070312 38.535156 C 46.152344 38.742188 46.277344 38.929688 46.4375 39.089844 C 46.589844 39.246094 46.777344 39.371094 46.980469 39.453125 C 47.1875 39.535156 47.40625 39.578125 47.625 39.570312 C 47.847656 39.570312 48.066406 39.527344 48.269531 39.445312 C 48.476562 39.359375 48.660156 39.234375 48.816406 39.078125 C 48.972656 38.921875 49.097656 38.734375 49.183594 38.53125 C 49.265625 38.324219 49.3125 38.105469 49.3125 37.882812 Z M 66.878906 41.523438 L 64.542969 41.523438 L 64.238281 38.96875 L 61.304688 38.96875 L 60.988281 41.523438 L 58.546875 41.523438 L 61.699219 20.929688 L 63.78125 20.929688 Z M 63.953125 36.796875 L 62.785156 27.75 L 61.585938 36.796875 Z M 76.679688 41.523438 L 74.375 41.523438 L 74.375 29.320312 C 74.371094 29.089844 74.324219 28.867188 74.226562 28.660156 C 74.132812 28.457031 73.992188 28.273438 73.820312 28.128906 C 73.484375 27.808594 73.042969 27.632812 72.585938 27.628906 C 72.117188 27.625 71.664062 27.804688 71.320312 28.128906 C 71.144531 28.273438 71.003906 28.453125 70.90625 28.660156 C 70.808594 28.867188 70.757812 29.089844 70.757812 29.320312 L 70.757812 41.523438 L 68.460938 41.523438 L 68.460938 25.453125 L 69.996094 25.453125 L 70.503906 26.207031 C 70.71875 25.898438 71.019531 25.660156 71.371094 25.535156 C 71.757812 25.386719 72.171875 25.3125 72.585938 25.316406 C 73.121094 25.3125 73.65625 25.421875 74.148438 25.632812 C 74.632812 25.835938 75.074219 26.128906 75.453125 26.492188 C 75.832031 26.851562 76.136719 27.285156 76.351562 27.765625 C 76.570312 28.257812 76.683594 28.789062 76.679688 29.328125 L 76.679688 41.53125 Z M 83.183594 39.601562 C 83.40625 39.605469 83.621094 39.550781 83.8125 39.441406 C 83.984375 39.351562 84.132812 39.21875 84.242188 39.058594 L 85.804688 40.777344 C 85.5 41.136719 85.117188 41.414062 84.683594 41.589844 C 84.238281 41.789062 83.757812 41.890625 83.273438 41.894531 C 82.777344 41.921875 82.28125 41.835938 81.824219 41.640625 C 81.363281 41.449219 80.953125 41.152344 80.625 40.777344 C 79.980469 39.96875 79.648438 38.949219 79.6875 37.914062 L 79.6875 27.488281 L 78.238281 27.488281 L 78.238281 25.453125 L 79.6875 25.453125 L 79.6875 22.527344 L 81.996094 21.773438 L 81.996094 25.464844 L 85.035156 25.464844 L 85.035156 27.503906 L 81.996094 27.503906 L 81.996094 37.925781 C 81.996094 39.050781 82.390625 39.617188 83.183594 39.617188 Z M 95.074219 41.523438 L 93.539062 41.523438 L 93.019531 40.605469 C 92.828125 40.957031 92.53125 41.242188 92.167969 41.417969 C 91.261719 41.804688 90.242188 41.820312 89.324219 41.464844 C 88.90625 41.285156 88.523438 41.03125 88.199219 40.710938 C 87.859375 40.375 87.582031 39.972656 87.390625 39.535156 C 87.175781 39.035156 87.066406 38.496094 87.078125 37.949219 C 87.066406 37.195312 87.171875 36.445312 87.390625 35.726562 C 87.582031 35.125 87.847656 34.554688 88.183594 34.023438 C 88.5 33.539062 88.871094 33.09375 89.292969 32.703125 C 89.722656 32.328125 90.167969 31.976562 90.632812 31.648438 L 91.847656 30.765625 C 92.203125 30.507812 92.535156 30.214844 92.839844 29.890625 L 92.839844 29.085938 C 92.851562 28.664062 92.734375 28.25 92.496094 27.902344 C 92.386719 27.734375 92.234375 27.601562 92.054688 27.511719 C 91.875 27.425781 91.679688 27.382812 91.480469 27.398438 C 91.113281 27.363281 90.75 27.460938 90.445312 27.667969 C 90.144531 27.878906 89.925781 28.1875 89.824219 28.542969 L 87.863281 27.199219 C 87.992188 26.925781 88.160156 26.671875 88.359375 26.445312 C 88.589844 26.179688 88.859375 25.949219 89.160156 25.761719 C 89.488281 25.554688 89.839844 25.390625 90.207031 25.269531 C 90.621094 25.144531 91.046875 25.082031 91.480469 25.082031 C 91.976562 25.078125 92.46875 25.183594 92.925781 25.386719 C 93.378906 25.589844 93.789062 25.886719 94.121094 26.257812 C 94.449219 26.632812 94.703125 27.0625 94.871094 27.53125 C 95.050781 28.03125 95.144531 28.558594 95.140625 29.09375 L 95.140625 41.5 Z M 92.765625 37.484375 L 92.765625 32.898438 C 92.484375 33.089844 92.144531 33.328125 91.757812 33.652344 C 91.355469 33.949219 90.984375 34.285156 90.648438 34.65625 C 90.285156 35.058594 89.980469 35.511719 89.75 36.003906 C 89.496094 36.550781 89.371094 37.144531 89.382812 37.746094 C 89.378906 37.96875 89.417969 38.191406 89.5 38.398438 C 89.582031 38.605469 89.707031 38.792969 89.863281 38.953125 C 90.019531 39.109375 90.207031 39.234375 90.414062 39.316406 C 90.617188 39.398438 90.839844 39.441406 91.058594 39.433594 C 91.289062 39.433594 91.519531 39.382812 91.726562 39.277344 C 91.929688 39.175781 92.109375 39.023438 92.25 38.839844 C 92.578125 38.480469 92.761719 38.007812 92.765625 37.519531 Z M 99.273438 41.523438 L 96.972656 41.523438 L 96.972656 20.839844 L 99.273438 20.085938 L 99.273438 41.539062 Z M 108.9375 46.605469 L 106.636719 46.605469 L 106.636719 40.746094 C 106.476562 41.015625 106.230469 41.226562 105.941406 41.351562 C 105.539062 41.546875 105.09375 41.644531 104.648438 41.636719 C 104.175781 41.640625 103.707031 41.546875 103.273438 41.363281 C 102.835938 41.179688 102.441406 40.914062 102.109375 40.574219 C 101.757812 40.210938 101.476562 39.785156 101.285156 39.316406 C 101.070312 38.777344 100.96875 38.203125 100.980469 37.625 L 100.980469 25.453125 L 103.277344 25.453125 L 103.277344 37.625 C 103.273438 37.847656 103.3125 38.070312 103.398438 38.277344 C 103.480469 38.480469 103.605469 38.667969 103.765625 38.824219 C 103.917969 38.984375 104.101562 39.113281 104.308594 39.195312 C 104.511719 39.28125 104.734375 39.320312 104.953125 39.316406 C 105.398438 39.316406 105.828125 39.136719 106.144531 38.820312 C 106.457031 38.503906 106.636719 38.074219 106.636719 37.625 L 106.636719 25.453125 L 108.9375 25.453125 Z M 118.667969 41.523438 L 117.171875 41.523438 L 116.664062 40.605469 C 116.464844 40.953125 116.167969 41.238281 115.808594 41.417969 C 115.320312 41.640625 114.78125 41.746094 114.246094 41.71875 C 113.804688 41.722656 113.371094 41.632812 112.964844 41.464844 C 112.097656 41.105469 111.398438 40.421875 111.023438 39.554688 C 110.808594 39.058594 110.703125 38.515625 110.710938 37.972656 C 110.699219 37.21875 110.804688 36.46875 111.023438 35.75 C 111.21875 35.148438 111.488281 34.574219 111.828125 34.046875 C 112.136719 33.558594 112.511719 33.117188 112.933594 32.726562 C 113.335938 32.355469 113.761719 32.003906 114.199219 31.679688 L 115.40625 30.796875 C 115.761719 30.535156 116.09375 30.242188 116.398438 29.921875 L 116.398438 29.113281 C 116.410156 28.695312 116.292969 28.28125 116.0625 27.933594 C 115.949219 27.765625 115.796875 27.632812 115.617188 27.542969 C 115.4375 27.453125 115.238281 27.414062 115.039062 27.425781 C 114.675781 27.394531 114.308594 27.492188 114.007812 27.699219 C 113.707031 27.910156 113.488281 28.21875 113.390625 28.574219 L 111.421875 27.230469 C 111.558594 26.957031 111.726562 26.707031 111.921875 26.476562 C 112.152344 26.207031 112.417969 25.976562 112.71875 25.789062 C 113.046875 25.582031 113.402344 25.417969 113.773438 25.300781 C 114.183594 25.175781 114.609375 25.109375 115.039062 25.113281 C 115.554688 25.105469 116.066406 25.214844 116.535156 25.429688 C 116.976562 25.632812 117.371094 25.925781 117.695312 26.289062 C 118.023438 26.664062 118.277344 27.09375 118.445312 27.5625 C 118.625 28.0625 118.714844 28.589844 118.714844 29.121094 L 118.714844 41.53125 Z M 116.363281 37.484375 L 116.363281 32.898438 C 116.078125 33.089844 115.742188 33.328125 115.351562 33.652344 C 114.953125 33.953125 114.582031 34.289062 114.246094 34.65625 C 113.882812 35.058594 113.582031 35.511719 113.355469 36.003906 C 113.097656 36.550781 112.972656 37.144531 112.980469 37.746094 C 112.976562 37.96875 113.015625 38.191406 113.097656 38.398438 C 113.179688 38.605469 113.304688 38.792969 113.460938 38.949219 C 113.617188 39.109375 113.804688 39.230469 114.011719 39.316406 C 114.214844 39.398438 114.433594 39.441406 114.65625 39.433594 C 114.886719 39.433594 115.113281 39.378906 115.324219 39.273438 C 115.53125 39.171875 115.710938 39.023438 115.855469 38.839844 C 116.179688 38.480469 116.363281 38.007812 116.363281 37.519531 Z M 116.363281 37.484375 "/>
<path style=" stroke:none;fill-rule:evenodd;fill:rgb(100%,100%,100%);fill-opacity:1;" d="M 37.476562 44.253906 L 105.660156 44.253906 L 105.660156 45.140625 L 37.476562 45.140625 Z M 37.476562 44.253906 "/>
<path style=" stroke:none;fill-rule:evenodd;fill:rgb(100%,100%,100%);fill-opacity:1;" d="M 106.734375 17.039062 L 129.859375 17.039062 L 129.859375 45.140625 L 110 45.140625 L 110 44.253906 L 128.976562 44.253906 L 128.976562 17.929688 L 28.238281 17.929688 L 43.300781 5.261719 L 42.597656 4.910156 L 27.175781 17.929688 L 4.230469 17.929688 L 4.230469 44.253906 L 33.101562 44.253906 L 33.101562 45.140625 L 3.4375 45.140625 L 3.4375 17.039062 L 26.5625 17.039062 L 42.597656 3.476562 L 75.730469 17.039062 L 77.054688 17.039062 L 44.011719 3.476562 Z M 106.734375 17.039062 "/>
</g>
</svg>
