<svg width="179" height="65" viewBox="0 0 179 65" fill="none" xmlns="http://www.w3.org/2000/svg">
<path d="M30.1304 49.7622C30.134 50.4737 29.9909 51.1784 29.7102 51.8323C29.4466 52.4635 29.0629 53.0374 28.5803 53.5222C28.0897 54.0049 27.5132 54.3914 26.8804 54.6621C26.2272 54.9447 25.522 55.088 24.8103 55.0823H19.4902V27.7622H24.8103C25.522 27.7565 26.2272 27.8995 26.8804 28.1821C27.5165 28.4421 28.0944 28.8263 28.5803 29.3123C29.0662 29.7982 29.4502 30.3761 29.7102 31.0122C29.9928 31.6654 30.1361 32.3706 30.1304 33.0823V49.7622ZM27.0603 49.7622V33.0823C27.0659 32.7837 27.0092 32.4871 26.8938 32.2117C26.7784 31.9362 26.6071 31.6877 26.3904 31.4822C26.184 31.2735 25.9377 31.1085 25.6663 30.9968C25.3948 30.8852 25.1038 30.8292 24.8103 30.8323H22.5703V51.9822H24.8103C25.1038 51.9852 25.3948 51.9293 25.6663 51.8176C25.9377 51.706 26.184 51.541 26.3904 51.3323C26.6063 51.1283 26.7772 50.8814 26.8926 50.6077C27.0079 50.3339 27.0651 50.0392 27.0603 49.7422V49.7622ZM42.9702 50.2522C42.9863 51.2884 42.6959 52.3062 42.1355 53.178C41.5751 54.0497 40.7697 54.7365 39.8203 55.1521C39.1706 55.4291 38.4717 55.572 37.7654 55.572C37.0591 55.572 36.3599 55.4291 35.7102 55.1521C35.0938 54.8705 34.5371 54.4734 34.0703 53.9822C33.5946 53.4978 33.2205 52.9233 32.9702 52.2922C32.6988 51.6362 32.5629 50.9321 32.5703 50.2222V38.5923C32.5718 37.5468 32.8806 36.5248 33.4585 35.6536C34.0364 34.7823 34.8577 34.1001 35.8203 33.6921C36.4735 33.4095 37.1787 33.2665 37.8904 33.2722C38.5996 33.2716 39.3022 33.4073 39.9602 33.6721C40.5939 33.9357 41.1686 34.3234 41.6504 34.8123C42.1458 35.3347 42.5331 35.9496 42.7903 36.6221C43.0822 37.3984 43.2246 38.223 43.2102 39.0522C43.2318 40.1973 43.1042 41.3401 42.8303 42.4521C42.5891 43.346 42.1895 44.1894 41.6504 44.9421C40.99 45.8018 40.1845 46.5395 39.2703 47.1221C38.1037 47.883 36.8952 48.5775 35.6504 49.2021V50.2021C35.632 50.79 35.8394 51.3627 36.2302 51.8022C36.4302 52.0048 36.6685 52.1656 36.9312 52.2754C37.1938 52.3852 37.4756 52.4417 37.7603 52.4417C38.0449 52.4417 38.3267 52.3852 38.5894 52.2754C38.852 52.1656 39.0903 52.0048 39.2903 51.8022C39.6975 51.3707 39.917 50.7952 39.9004 50.2021V49.8621L42.9802 48.8621V50.2322L42.9702 50.2522ZM40.1204 39.2522C40.1616 38.8562 40.1236 38.4558 40.0085 38.0747C39.8935 37.6936 39.7036 37.3393 39.4502 37.0322C39.2433 36.8284 38.9981 36.6677 38.7285 36.5596C38.459 36.4514 38.1708 36.3978 37.8804 36.4021C37.5814 36.394 37.2841 36.4497 37.0083 36.5652C36.7325 36.6807 36.4843 36.8536 36.2803 37.0723C36.0741 37.278 35.9114 37.5228 35.8015 37.7925C35.6916 38.0621 35.6368 38.3509 35.6404 38.6421V45.7122C36.3828 45.3554 37.0864 44.9231 37.7402 44.4221C38.2452 44.0383 38.699 43.5915 39.0903 43.0923C39.4812 42.5716 39.7604 41.9758 39.9104 41.3423C40.0587 40.6557 40.1291 39.9545 40.1204 39.2522V39.2522ZM56.2202 50.2522C56.2259 50.9639 56.0829 51.669 55.8003 52.3223C55.5404 52.9579 55.1524 53.5331 54.6604 54.0122C54.1752 54.4968 53.6013 54.8837 52.9702 55.1521C52.317 55.4347 51.6121 55.578 50.9004 55.5723C50.4502 55.6379 49.9906 55.559 49.5881 55.3469C49.1856 55.1349 48.8609 54.8005 48.6604 54.3921V61.9922H45.5803V33.7622H47.5803L48.2703 34.7622C48.5463 34.3717 48.9382 34.0777 49.3904 33.9221C49.8495 33.7125 50.3459 33.597 50.8503 33.5823C51.5621 33.5766 52.2672 33.7196 52.9204 34.0022C53.5515 34.2706 54.1251 34.6575 54.6104 35.1421C55.1024 35.6212 55.4903 36.1966 55.7502 36.8323C56.0309 37.4861 56.1741 38.1906 56.1704 38.9021V50.2622L56.2202 50.2522ZM53.1404 50.2522V38.8921C53.1377 38.2988 52.901 37.7308 52.4814 37.3113C52.0619 36.8918 51.4937 36.6547 50.9004 36.6521C50.6041 36.646 50.3098 36.7016 50.0361 36.8152C49.7624 36.9288 49.5152 37.0982 49.3103 37.3123C49.1025 37.5193 48.938 37.7656 48.8264 38.0369C48.7148 38.3081 48.6585 38.5988 48.6604 38.8921V50.2522C48.6546 50.549 48.7093 50.8438 48.821 51.1189C48.9328 51.3939 49.0992 51.6436 49.3103 51.8523C49.5176 52.0618 49.7656 52.2266 50.0391 52.3367C50.3125 52.4467 50.6057 52.4996 50.9004 52.4922C51.1932 52.4971 51.4839 52.443 51.7554 52.333C52.0268 52.223 52.2734 52.0596 52.4802 51.8523C52.6946 51.6455 52.864 51.3964 52.9775 51.1211C53.0911 50.8457 53.1466 50.55 53.1404 50.2522ZM68.9404 50.2522C68.9447 50.9628 68.8051 51.667 68.5303 52.3223C68.2619 52.9533 67.875 53.527 67.3904 54.0122C66.8997 54.4949 66.3232 54.8814 65.6904 55.1521C65.0372 55.4347 64.3321 55.578 63.6204 55.5723C62.9088 55.5759 62.2041 55.4328 61.5503 55.1521C60.9205 54.8814 60.3473 54.4947 59.8604 54.0122C59.3757 53.527 58.9886 52.9533 58.7202 52.3223C58.4376 51.669 58.2946 50.9639 58.3003 50.2522V38.6221C58.2966 37.9105 58.4395 37.2061 58.7202 36.5522C59.261 35.2777 60.2758 34.263 61.5503 33.7222C62.2041 33.4415 62.9088 33.2986 63.6204 33.3022C64.3321 33.2966 65.0372 33.4395 65.6904 33.7222C66.9699 34.259 67.9889 35.2746 68.5303 36.5522C68.803 37.2082 68.9425 37.9117 68.9404 38.6221V50.2522V50.2522ZM65.8704 50.2522V38.6221C65.8706 38.3287 65.8114 38.0384 65.6963 37.7686C65.5811 37.4987 65.4122 37.2551 65.2002 37.0522C64.9977 36.8371 64.7527 36.6664 64.4807 36.551C64.2087 36.4357 63.9158 36.3781 63.6204 36.3821C63.3231 36.3754 63.0277 36.4317 62.7537 36.5471C62.4796 36.6626 62.2331 36.8348 62.0303 37.0522C61.8228 37.2574 61.6585 37.5019 61.5469 37.7715C61.4353 38.0411 61.3787 38.3303 61.3804 38.6221V50.2522C61.3746 50.549 61.4293 50.8438 61.541 51.1189C61.6528 51.3939 61.8191 51.6436 62.0303 51.8523C62.2376 52.0618 62.4856 52.2266 62.759 52.3367C63.0325 52.4467 63.3257 52.4996 63.6204 52.4922C63.9154 52.4935 64.2078 52.4364 64.4807 52.3245C64.7536 52.2125 65.0016 52.0477 65.2107 51.8396C65.4198 51.6315 65.5855 51.3842 65.6987 51.1118C65.8119 50.8394 65.8704 50.5472 65.8704 50.2522ZM89.3403 55.0823H86.2202L85.8103 51.6921H81.8904L81.4702 55.0823H78.2102L82.4204 27.7622H85.2002L89.3403 55.0823ZM85.4304 48.8123L83.8704 36.8123L82.2703 48.8123H85.4304ZM102.43 55.0823H99.3503V38.8921C99.3488 38.5909 99.2818 38.2936 99.1541 38.0208C99.0263 37.7479 98.8408 37.5063 98.6104 37.3123C98.1645 36.8901 97.5742 36.6539 96.9602 36.6521C96.3332 36.6477 95.7284 36.8841 95.2703 37.3123C95.037 37.5045 94.8489 37.7455 94.7192 38.0186C94.5896 38.2916 94.5217 38.5898 94.5203 38.8921V55.0823H91.4502V33.7622H93.5002L94.1804 34.7622C94.4656 34.3526 94.8708 34.0415 95.3403 33.8721C95.8579 33.6764 96.4069 33.5783 96.9602 33.5823C97.6781 33.5796 98.3892 33.7224 99.0503 34.0022C99.6953 34.2723 100.285 34.6586 100.79 35.1421C101.299 35.6194 101.707 36.1943 101.99 36.8323C102.283 37.483 102.433 38.1886 102.43 38.9021V55.0923V55.0823ZM111.12 52.5322C111.414 52.5364 111.703 52.464 111.96 52.3223C112.189 52.2015 112.385 52.0264 112.53 51.8123L114.62 54.0923C114.214 54.5667 113.699 54.9368 113.12 55.1721C112.528 55.4341 111.888 55.5704 111.24 55.5723C110.577 55.6096 109.913 55.4959 109.3 55.2395C108.687 54.9831 108.14 54.5909 107.7 54.0923C106.84 53.0174 106.396 51.6681 106.45 50.2922V36.4622H104.51V33.7622H106.45V29.8821L109.53 28.8821V33.7822H113.59V36.4822H109.53V50.3123C109.53 51.8023 110.06 52.5522 111.12 52.5522V52.5322ZM127 55.0823H124.95L124.26 53.8621C124.001 54.331 123.603 54.7082 123.12 54.9421C121.91 55.4551 120.547 55.4767 119.32 55.0022C118.761 54.767 118.252 54.4277 117.82 54.0022C117.363 53.557 116.996 53.0272 116.74 52.4421C116.45 51.7807 116.307 51.0644 116.32 50.3423C116.303 49.3429 116.445 48.3469 116.74 47.3921C116.994 46.5959 117.35 45.8362 117.8 45.1321C118.22 44.4901 118.717 43.9023 119.28 43.3821C119.851 42.8834 120.449 42.4162 121.07 41.9822L122.69 40.8123C123.168 40.4672 123.613 40.0787 124.02 39.6521V38.5823C124.035 38.0237 123.874 37.4745 123.56 37.0122C123.411 36.792 123.208 36.6143 122.969 36.4968C122.731 36.3793 122.466 36.3262 122.2 36.3423C121.712 36.2981 121.225 36.4258 120.821 36.7034C120.417 36.9809 120.124 37.3907 119.99 37.8621L117.37 36.0823C117.543 35.7201 117.765 35.3836 118.03 35.0823C118.34 34.7278 118.701 34.421 119.1 34.1721C119.538 33.898 120.008 33.6797 120.5 33.5222C121.051 33.3545 121.624 33.2702 122.2 33.2722C122.865 33.2689 123.524 33.406 124.132 33.6748C124.74 33.9436 125.285 34.3382 125.73 34.8323C126.166 35.3285 126.505 35.9016 126.73 36.5222C126.972 37.1853 127.095 37.8864 127.09 38.5923V55.0522L127 55.0823ZM123.92 49.7222V43.6421C123.54 43.8921 123.09 44.2121 122.57 44.6421C122.035 45.0359 121.539 45.4815 121.09 45.9722C120.603 46.5052 120.198 47.1086 119.89 47.7622C119.553 48.4847 119.385 49.2749 119.4 50.0723C119.394 50.3683 119.447 50.6626 119.557 50.9375C119.667 51.2124 119.832 51.462 120.041 51.6714C120.251 51.8808 120.5 52.0454 120.775 52.1555C121.05 52.2657 121.344 52.3191 121.64 52.3123C121.948 52.3119 122.252 52.2403 122.528 52.1033C122.804 51.9662 123.044 51.7674 123.23 51.5222C123.669 51.0444 123.915 50.4209 123.92 49.7722V49.7222ZM132.61 55.0823H129.54V27.6421L132.61 26.6421V55.1023V55.0823ZM145.52 61.8223H142.45V54.0522C142.232 54.4097 141.906 54.6896 141.52 54.8523C140.981 55.1124 140.389 55.2424 139.79 55.2322C139.16 55.235 138.535 55.1118 137.953 54.8696C137.371 54.6275 136.843 54.2714 136.4 53.8223C135.93 53.3417 135.556 52.7745 135.3 52.1521C135.013 51.4409 134.874 50.6788 134.89 49.9121V33.7622H137.96V49.9121C137.954 50.2075 138.009 50.5012 138.12 50.7747C138.232 51.0481 138.399 51.2957 138.61 51.5022C138.816 51.715 139.063 51.8827 139.337 51.9946C139.611 52.1065 139.905 52.1601 140.2 52.1521C140.795 52.1521 141.366 51.9166 141.788 51.4968C142.21 51.077 142.448 50.5071 142.45 49.9121V33.7622H145.52V61.8223V61.8223ZM158.52 55.0823H156.52L155.84 53.8621C155.575 54.3267 155.178 54.7025 154.7 54.9421C154.045 55.2399 153.329 55.3772 152.61 55.3423C152.023 55.3444 151.442 55.2287 150.9 55.0022C149.74 54.5293 148.81 53.6213 148.31 52.4722C148.02 51.8107 147.877 51.0942 147.89 50.3721C147.873 49.3727 148.015 48.3769 148.31 47.4221C148.567 46.6255 148.927 45.8658 149.38 45.1621C149.797 44.5181 150.294 43.93 150.86 43.4121C151.399 42.9197 151.963 42.4559 152.55 42.0222L154.16 40.8523C154.638 40.5072 155.083 40.1187 155.49 39.6921V38.6221C155.504 38.0651 155.347 37.5174 155.04 37.0522C154.889 36.8319 154.683 36.6545 154.443 36.5371C154.203 36.4197 153.937 36.3662 153.67 36.3821C153.184 36.3384 152.697 36.4667 152.295 36.7444C151.894 37.0221 151.601 37.4316 151.47 37.9021L148.84 36.1221C149.021 35.7618 149.246 35.4258 149.51 35.1221C149.814 34.7654 150.172 34.4585 150.57 34.2122C151.011 33.9361 151.484 33.7178 151.98 33.5623C152.528 33.3945 153.098 33.3102 153.67 33.3123C154.36 33.3035 155.043 33.4469 155.67 33.7322C156.259 34.0027 156.787 34.3905 157.22 34.8721C157.656 35.3683 157.995 35.9417 158.22 36.5623C158.462 37.2253 158.584 37.9262 158.58 38.6321V55.0923L158.52 55.0823ZM155.44 49.7222V43.6421C155.06 43.8921 154.61 44.2121 154.09 44.6421C153.557 45.0385 153.061 45.4839 152.61 45.9722C152.126 46.5056 151.725 47.1091 151.42 47.7622C151.08 48.484 150.909 49.2742 150.92 50.0723C150.915 50.3679 150.969 50.6616 151.08 50.9358C151.19 51.21 151.355 51.4591 151.564 51.6682C151.773 51.8773 152.022 52.0422 152.297 52.1528C152.571 52.2635 152.865 52.3177 153.16 52.3123C153.469 52.309 153.773 52.2361 154.05 52.0994C154.327 51.9626 154.57 51.7654 154.76 51.5222C155.196 51.0434 155.439 50.4197 155.44 49.7722V49.7222Z" fill="white"/>
<path fill-rule="evenodd" clip-rule="evenodd" d="M50.0605 58.7024H141.141V59.8824H50.0605V58.7024Z" fill="white"/>
<path fill-rule="evenodd" clip-rule="evenodd" d="M142.58 22.6023H172.88H173.47V59.8823H146.94V58.7023H172.29V23.7823H37.7203L57.8403 6.98231L56.9003 6.51231L36.3003 23.7823H5.65033V58.7023H44.2203V59.8823H4.59033V22.6023H35.4803L56.9003 4.6123L101.16 22.6023H102.93L58.7903 4.6123L142.58 22.6023Z" fill="white"/>
</svg>
