<svg width="226" height="295" viewBox="0 0 226 295" fill="none" xmlns="http://www.w3.org/2000/svg">
<path d="M5.43237 118.526H34.8907L104.703 180.484H60.422C60.1199 180.474 59.8178 180.495 59.5157 180.547C59.2188 180.599 58.9272 180.682 58.6459 180.797C58.3595 180.906 58.0938 181.047 57.8386 181.219C57.5886 181.385 57.3542 181.578 57.1355 181.792C56.922 182.005 56.7345 182.245 56.5678 182.5C56.4011 182.75 56.2605 183.021 56.1511 183.307C56.0417 183.588 55.9584 183.88 55.9115 184.182C55.8595 184.479 55.8386 184.781 55.849 185.083V290.24C55.8386 290.542 55.8595 290.844 55.9115 291.141C55.9636 291.437 56.047 291.729 56.1563 292.01C56.2657 292.292 56.4063 292.557 56.573 292.812C56.7397 293.062 56.9272 293.297 57.1459 293.51C57.3595 293.724 57.5938 293.911 57.849 294.078C58.099 294.245 58.3699 294.38 58.6511 294.49C58.9324 294.599 59.224 294.677 59.5209 294.729C59.823 294.776 60.1199 294.792 60.422 294.781H165.578C165.88 294.792 166.177 294.776 166.479 294.729C166.776 294.677 167.068 294.599 167.349 294.49C167.63 294.38 167.901 294.245 168.151 294.078C168.406 293.911 168.641 293.724 168.854 293.51C169.073 293.297 169.261 293.062 169.427 292.812C169.594 292.557 169.734 292.292 169.844 292.01C169.953 291.729 170.037 291.437 170.089 291.141C170.141 290.844 170.162 290.542 170.146 290.24V185.083C170.162 184.781 170.141 184.479 170.089 184.182C170.042 183.88 169.958 183.588 169.849 183.307C169.74 183.021 169.599 182.75 169.432 182.5C169.266 182.245 169.078 182.005 168.865 181.792C168.646 181.578 168.412 181.385 168.162 181.219C167.906 181.047 167.635 180.906 167.354 180.797C167.073 180.682 166.781 180.599 166.484 180.547C166.182 180.495 165.88 180.474 165.578 180.484H121.297L191.109 118.526H220.568C221.203 118.526 221.818 118.401 222.406 118.156C222.995 117.911 223.516 117.568 223.969 117.115C224.422 116.661 224.766 116.141 225.01 115.552C225.255 114.963 225.38 114.349 225.38 113.713C225.38 111.932 225.339 110.156 225.255 108.38C225.172 106.604 225.047 104.833 224.88 103.062C224.714 101.292 224.505 99.526 224.255 97.7655C224.005 96.0103 223.708 94.2551 223.375 92.5103C223.042 90.7655 222.667 89.026 222.25 87.2968C221.833 85.5676 221.375 83.8541 220.88 82.1458C220.38 80.4374 219.844 78.7447 219.26 77.0676C218.682 75.3853 218.068 73.7187 217.406 72.0676C216.75 70.4166 216.052 68.7812 215.318 67.1614C214.583 65.5416 213.807 63.9426 213 62.3645C212.188 60.7812 211.339 59.2187 210.453 57.677C209.568 56.1353 208.646 54.6145 207.688 53.1197C206.729 51.6197 205.734 50.1458 204.708 48.6978C203.682 47.2447 202.62 45.8228 201.526 44.4218C200.427 43.0208 199.302 41.651 198.141 40.302C196.979 38.9583 195.787 37.6353 194.563 36.3489C193.339 35.0572 192.089 33.7968 190.802 32.5676C189.521 31.3385 188.208 30.1405 186.87 28.9687C185.526 27.802 184.162 26.6666 182.766 25.5624C181.375 24.4635 179.953 23.3905 178.51 22.3541C177.063 21.3228 175.594 20.3228 174.104 19.3541C172.609 18.3905 171.094 17.4583 169.557 16.5624C168.021 15.6718 166.464 14.8124 164.891 13.9947C163.313 13.1718 161.714 12.3905 160.099 11.6458C158.484 10.9062 156.854 10.1978 155.208 9.53117C153.563 8.8645 151.896 8.2395 150.219 7.65096C148.542 7.06242 146.849 6.51555 145.146 6.01034C143.443 5.49992 141.729 5.03638 140.005 4.60929C138.276 4.18221 136.542 3.79679 134.797 3.45304C133.052 3.10929 131.302 2.80721 129.542 2.54679C127.787 2.28638 126.021 2.06763 124.255 1.89054C122.484 1.71867 120.714 1.58325 118.938 1.4895C114.979 0.687418 111.026 0.687418 107.073 1.4895C105.297 1.58325 103.526 1.71346 101.755 1.89054C99.9845 2.06763 98.224 2.28638 96.4636 2.54679C94.7032 2.80721 92.9532 3.10929 91.2084 3.45304C89.4636 3.79679 87.7293 4.18221 86.0053 4.60929C84.2761 5.03117 82.5626 5.49992 80.8595 6.00513C79.1563 6.51555 77.4636 7.06242 75.7865 7.65096C74.1095 8.23429 72.448 8.8645 70.797 9.53117C69.1511 10.1978 67.5209 10.901 65.9063 11.6458C64.2917 12.3905 62.6928 13.1718 61.1147 13.9895C59.5417 14.8124 57.9845 15.6666 56.448 16.5624C54.9115 17.4583 53.3959 18.3853 51.9011 19.3541C50.4115 20.3176 48.9428 21.3176 47.4949 22.3541C46.0522 23.3905 44.6303 24.4583 43.2345 25.5624C41.8438 26.6666 40.474 27.802 39.1355 28.9687C37.797 30.1353 36.4845 31.3333 35.198 32.5676C33.9167 33.7968 32.6615 35.0572 31.4376 36.3437C30.2188 37.6353 29.0261 38.953 27.8647 40.302C26.7032 41.6458 25.573 43.0208 24.4792 44.4218C23.3855 45.8176 22.323 47.2447 21.2917 48.6926C20.2657 50.1458 19.2709 51.6197 18.3126 53.1197C17.3595 54.6145 16.4376 56.1353 15.547 57.677C14.6615 59.2187 13.8126 60.776 13.0053 62.3593C12.1928 63.9426 11.4167 65.5416 10.6824 67.1614C9.948 68.7812 9.25008 70.4114 8.59383 72.0676C7.93758 73.7187 7.31779 75.3853 6.73967 77.0624C6.16154 78.7447 5.61987 80.4374 5.12508 82.1458C4.62508 83.8541 4.16675 85.5676 3.75008 87.2968C3.33341 89.026 2.95841 90.7603 2.62508 92.5103C2.29175 94.2551 1.99487 96.0051 1.74487 97.7655C1.49487 99.526 1.28654 101.292 1.11987 103.062C0.953206 104.833 0.828206 106.604 0.744873 108.38C0.66154 110.156 0.619873 111.932 0.619873 113.713C0.619873 114.349 0.744873 114.963 0.989665 115.552C1.23446 116.141 1.57821 116.661 2.03133 117.115C2.48446 117.568 3.00529 117.911 3.59383 118.156C4.18237 118.401 4.79696 118.526 5.43237 118.526ZM101.568 190.109H124.427V204.365L114.458 200.818C113.464 200.448 112.469 200.448 111.474 200.818L101.568 204.365V190.109ZM160.521 285.156H65.474V190.109H91.9428V211.156C91.9324 211.536 91.9636 211.911 92.0365 212.281C92.1147 212.656 92.2345 213.01 92.4011 213.354C92.5678 213.698 92.7709 214.016 93.0157 214.307C93.2553 214.599 93.5313 214.854 93.8386 215.078C94.1459 215.302 94.474 215.49 94.823 215.63C95.1772 215.776 95.5417 215.875 95.9167 215.927C96.2917 215.979 96.6668 215.99 97.047 215.948C97.4272 215.911 97.7917 215.828 98.1511 215.698L113.031 210.463L127.938 215.698C128.448 215.88 128.974 215.969 129.521 215.969C130.5 215.969 131.385 215.672 132.167 215.083C132.787 214.625 133.261 214.047 133.594 213.354C133.927 212.656 134.083 211.927 134.052 211.156V190.109H160.521V285.156ZM113 174.766L49.4167 118.526H176.583L113 174.766ZM107.604 11.0989C109.396 11.0051 111.193 10.9583 113 10.9583C114.807 10.9583 116.604 11.0051 118.396 11.0989C140.422 17.1197 158.255 59.3697 159.219 108.901H66.7813C67.7449 59.3697 85.5782 17.1197 107.604 11.0989ZM215.646 108.901H168.849C168.354 81.0103 162.938 55.0155 153.464 35.0676C149.537 26.7916 145.063 19.9218 140.182 14.5676C142.781 15.2812 145.344 16.0937 147.875 17.0051C150.406 17.9166 152.901 18.927 155.354 20.0364C157.802 21.1458 160.208 22.3541 162.568 23.651C164.927 24.9478 167.229 26.3385 169.479 27.8176C171.724 29.2968 173.912 30.8593 176.037 32.5103C178.167 34.1614 180.224 35.8958 182.214 37.7083C184.203 39.5208 186.115 41.4114 187.958 43.3749C189.797 45.3385 191.563 47.3697 193.24 49.4687C194.922 51.5728 196.521 53.7395 198.031 55.9635C199.542 58.1926 200.964 60.4739 202.297 62.8124C203.625 65.1562 204.865 67.5416 206.01 69.9791C207.151 72.4166 208.198 74.8905 209.151 77.4114C210.099 79.927 210.948 82.4791 211.698 85.0676C212.448 87.651 213.094 90.2603 213.635 92.901C214.177 95.5364 214.62 98.1874 214.953 100.859C215.287 103.531 215.521 106.208 215.646 108.901ZM40.3386 40.9999C46.6407 34.6822 53.6459 29.2812 61.3542 24.7968C69.0678 20.3176 77.2292 16.9062 85.8386 14.5624C80.9532 19.927 76.4688 26.8072 72.5365 35.0937C63.0626 55.0416 57.6459 81.0103 57.1511 108.901H10.3542C10.6303 102.557 11.4949 96.2916 12.9376 90.1093C14.3803 83.927 16.3855 77.9322 18.9532 72.1249C21.5157 66.3176 24.599 60.7968 28.1928 55.5624C31.7917 50.328 35.8386 45.4739 40.3386 40.9999Z" fill="#E25303"/>
</svg>
