<svg width="179" height="66" viewBox="0 0 179 66" fill="none" xmlns="http://www.w3.org/2000/svg">
<path fill-rule="evenodd" clip-rule="evenodd" d="M5.51978 65.1299C4.30324 65.1273 3.13732 64.643 2.2771 63.7828C1.41688 62.9226 0.932329 61.7564 0.929688 60.5399V23.2601C0.932336 22.0445 1.41708 20.8794 2.27759 20.0208C3.13809 19.1622 4.30416 18.68 5.51978 18.68H34.7397L54.8796 1.76007C55.407 1.30132 56.0344 0.972005 56.7114 0.798397C57.3885 0.624788 58.0967 0.611684 58.7798 0.760067C59.4065 0.630153 60.053 0.630153 60.6797 0.760067L144 18.6399H174.4C175.614 18.6426 176.777 19.1261 177.635 19.9844C178.494 20.8428 178.977 22.0061 178.98 23.22V60.5001C178.98 61.7157 178.498 62.8815 177.639 63.742C176.78 64.6025 175.615 65.0872 174.4 65.0899L5.51978 65.1299Z" fill="#F16601"/>
<path d="M31.0601 50.4199C31.0637 51.1314 30.9206 51.8362 30.6399 52.49C30.3763 53.1212 29.9926 53.6951 29.51 54.1799C29.0194 54.6626 28.4428 55.0491 27.8101 55.3198C27.1568 55.6025 26.4517 55.7457 25.74 55.74H20.4199V28.4199H25.74C26.4517 28.4142 27.1568 28.5572 27.8101 28.8398C28.4462 29.0998 29.0241 29.4841 29.51 29.97C29.9959 30.4559 30.3799 31.0338 30.6399 31.6699C30.9225 32.3231 31.0657 33.0283 31.0601 33.74V50.4199ZM27.99 50.4199V33.74C27.9956 33.4414 27.9388 33.1449 27.8235 32.8694C27.7081 32.5939 27.5367 32.3454 27.3201 32.1399C27.1137 31.9312 26.8674 31.7662 26.5959 31.6545C26.3245 31.5429 26.0335 31.4869 25.74 31.49H23.5V52.6399H25.74C26.0335 52.6429 26.3245 52.587 26.5959 52.4753C26.8674 52.3637 27.1137 52.1987 27.3201 51.99C27.536 51.786 27.7069 51.5391 27.8223 51.2654C27.9376 50.9916 27.9948 50.6969 27.99 50.3999V50.4199ZM43.8999 50.9099C43.916 51.9461 43.6256 52.9639 43.0652 53.8357C42.5048 54.7074 41.6994 55.3942 40.75 55.8098C40.1003 56.0868 39.4014 56.2297 38.6951 56.2297C37.9888 56.2297 37.2896 56.0868 36.6399 55.8098C36.0235 55.5283 35.4668 55.1312 35 54.6399C34.5243 54.1556 34.1502 53.581 33.8999 52.95C33.6285 52.2939 33.4925 51.5898 33.5 50.8799V39.25C33.5015 38.2045 33.8103 37.1825 34.3882 36.3113C34.9661 35.44 35.7874 34.7578 36.75 34.3499C37.4032 34.0672 38.1083 33.9242 38.8201 33.9299C39.5293 33.9293 40.2319 34.065 40.8899 34.3298C41.5236 34.5934 42.0983 34.9812 42.5801 35.47C43.0755 35.9924 43.4628 36.6073 43.72 37.2798C44.0119 38.0561 44.1543 38.8807 44.1399 39.71C44.1615 40.855 44.0339 41.9979 43.76 43.1099C43.5188 44.0038 43.1192 44.8471 42.5801 45.5999C41.9197 46.4595 41.1142 47.1972 40.2 47.7798C39.0334 48.5407 37.8249 49.2352 36.5801 49.8599V50.8599C36.5617 51.4477 36.7691 52.0204 37.1599 52.46C37.3599 52.6625 37.5982 52.8233 37.8608 52.9331C38.1235 53.0429 38.4053 53.0994 38.6899 53.0994C38.9746 53.0994 39.2564 53.0429 39.519 52.9331C39.7817 52.8233 40.02 52.6625 40.22 52.46C40.6272 52.0285 40.8467 51.4529 40.8301 50.8599V50.5198L43.9099 49.5198V50.8899L43.8999 50.9099ZM41.05 39.9099C41.0913 39.5139 41.0533 39.1136 40.9382 38.7324C40.8232 38.3513 40.6333 37.997 40.3799 37.6899C40.173 37.4861 39.9277 37.3254 39.6582 37.2173C39.3887 37.1091 39.1005 37.0555 38.8101 37.0598C38.5111 37.0517 38.2138 37.1074 37.938 37.2229C37.6621 37.3384 37.4139 37.5113 37.21 37.73C37.0038 37.9357 36.8411 38.1805 36.7312 38.4502C36.6213 38.7198 36.5665 39.0086 36.5701 39.2998V46.3699C37.3125 46.0131 38.0161 45.5808 38.6699 45.0798C39.1749 44.696 39.6287 44.2492 40.02 43.75C40.4109 43.2293 40.6901 42.6336 40.8401 42C40.9884 41.3134 41.0588 40.6123 41.05 39.9099V39.9099ZM57.1499 50.9099C57.1556 51.6216 57.0126 52.3268 56.73 52.98C56.4701 53.6156 56.0821 54.1909 55.5901 54.6699C55.1049 55.1545 54.531 55.5414 53.8999 55.8098C53.2467 56.0924 52.5418 56.2357 51.8301 56.23C51.3799 56.2956 50.9203 56.2167 50.5178 56.0046C50.1153 55.7926 49.7906 55.4582 49.5901 55.0498V62.6499H46.51V34.4199H48.51L49.2 35.4199C49.476 35.0294 49.8679 34.7354 50.3201 34.5798C50.7792 34.3702 51.2755 34.2547 51.78 34.24C52.4917 34.2343 53.1969 34.3773 53.8501 34.6599C54.4812 34.9283 55.0548 35.3152 55.54 35.7998C56.0321 36.2789 56.42 36.8543 56.6799 37.49C56.9606 38.1438 57.1038 38.8483 57.1001 39.5598V50.9199L57.1499 50.9099ZM54.0701 50.9099V39.5498C54.0674 38.9565 53.8306 38.3885 53.4111 37.969C52.9916 37.5495 52.4234 37.3124 51.8301 37.3098C51.5338 37.3037 51.2395 37.3593 50.9658 37.4729C50.6921 37.5865 50.4449 37.7559 50.24 37.97C50.0322 38.177 49.8677 38.4233 49.7561 38.6946C49.6445 38.9658 49.5882 39.2565 49.5901 39.5498V50.9099C49.5843 51.2067 49.639 51.5016 49.7507 51.7766C49.8625 52.0517 50.0289 52.3013 50.24 52.51C50.4473 52.7195 50.6953 52.8843 50.9688 52.9944C51.2422 53.1045 51.5354 53.1574 51.8301 53.1499C52.1229 53.1548 52.4136 53.1007 52.6851 52.9907C52.9565 52.8808 53.2031 52.7174 53.4099 52.51C53.6243 52.3032 53.7936 52.0542 53.9072 51.7788C54.0208 51.5035 54.0763 51.2077 54.0701 50.9099ZM69.8701 50.9099C69.8744 51.6205 69.7348 52.3247 69.46 52.98C69.1916 53.6111 68.8047 54.1847 68.3201 54.6699C67.8294 55.1526 67.2529 55.5391 66.6201 55.8098C65.9669 56.0924 65.2618 56.2357 64.55 56.23C63.8385 56.2336 63.1338 56.0905 62.48 55.8098C61.8502 55.5391 61.277 55.1525 60.79 54.6699C60.3054 54.1847 59.9183 53.6111 59.6499 52.98C59.3673 52.3268 59.2243 51.6216 59.23 50.9099V39.2798C59.2263 38.5683 59.3692 37.8638 59.6499 37.21C60.1907 35.9354 61.2054 34.9207 62.48 34.3799C63.1338 34.0992 63.8385 33.9563 64.55 33.96C65.2618 33.9543 65.9669 34.0973 66.6201 34.3799C67.8996 34.9168 68.9186 35.9324 69.46 37.21C69.7327 37.8659 69.8722 38.5694 69.8701 39.2798V50.9099V50.9099ZM66.8 50.9099V39.2798C66.8003 38.9864 66.7411 38.6961 66.626 38.4263C66.5108 38.1564 66.3419 37.9128 66.1299 37.71C65.9274 37.4948 65.6824 37.3241 65.4104 37.2087C65.1384 37.0934 64.8455 37.0358 64.55 37.0398C64.2528 37.0331 63.9574 37.0894 63.6833 37.2048C63.4093 37.3203 63.1628 37.4926 62.96 37.71C62.7525 37.9152 62.5882 38.1596 62.4766 38.4292C62.3649 38.6988 62.3083 38.988 62.3101 39.2798V50.9099C62.3043 51.2067 62.359 51.5016 62.4707 51.7766C62.5824 52.0517 62.7488 52.3013 62.96 52.51C63.1673 52.7195 63.4153 52.8843 63.6887 52.9944C63.9622 53.1045 64.2554 53.1574 64.55 53.1499C64.8451 53.1512 65.1375 53.0942 65.4104 52.9822C65.6833 52.8702 65.9313 52.7054 66.1404 52.4973C66.3494 52.2892 66.5152 52.042 66.6284 51.7695C66.7416 51.4971 66.8001 51.2049 66.8 50.9099ZM90.27 55.74H87.1499L86.74 52.3499H82.8201L82.3999 55.74H79.1399L83.3501 28.4199H86.1299L90.27 55.74ZM86.3601 49.47L84.8 37.47L83.2 49.47H86.3601ZM103.36 55.74H100.28V39.5498C100.278 39.2486 100.212 38.9513 100.084 38.6785C99.956 38.4057 99.7704 38.164 99.54 37.97C99.0942 37.5478 98.5039 37.3116 97.8899 37.3098C97.2629 37.3054 96.6581 37.5418 96.2 37.97C95.9667 38.1622 95.7785 38.4032 95.6489 38.6763C95.5193 38.9493 95.4514 39.2475 95.45 39.5498V55.74H92.3799V34.4199H94.4299L95.1101 35.4199C95.3953 35.0103 95.8005 34.6992 96.27 34.5298C96.7875 34.3341 97.3366 34.236 97.8899 34.24C98.6078 34.2373 99.3189 34.3801 99.98 34.6599C100.625 34.93 101.215 35.3163 101.72 35.7998C102.229 36.2771 102.637 36.852 102.92 37.49C103.213 38.1407 103.363 38.8463 103.36 39.5598V55.75V55.74ZM112.05 53.1899C112.344 53.1941 112.633 53.1217 112.89 52.98C113.119 52.8592 113.315 52.6841 113.46 52.47L115.55 54.75C115.143 55.2244 114.629 55.5945 114.05 55.8298C113.458 56.0918 112.818 56.2282 112.17 56.23C111.506 56.2674 110.843 56.1536 110.23 55.8972C109.617 55.6408 109.069 55.2486 108.63 54.75C107.769 53.6751 107.326 52.3258 107.38 50.95V37.1199H105.44V34.4199H107.38V30.5398L110.46 29.5398V34.4399H114.52V37.1399H110.46V50.97C110.46 52.46 110.99 53.21 112.05 53.21V53.1899ZM127.93 55.74H125.88L125.19 54.5198C124.93 54.9887 124.532 55.366 124.05 55.5999C122.839 56.1128 121.476 56.1344 120.25 55.6599C119.691 55.4247 119.182 55.0854 118.75 54.6599C118.292 54.2147 117.926 53.6849 117.67 53.0999C117.38 52.4384 117.237 51.7221 117.25 51C117.233 50.0006 117.374 49.0046 117.67 48.0498C117.924 47.2536 118.28 46.4939 118.73 45.7898C119.149 45.1478 119.647 44.56 120.21 44.0398C120.781 43.5412 121.379 43.0739 122 42.6399L123.62 41.47C124.098 41.1249 124.543 40.7364 124.95 40.3098V39.24C124.965 38.6814 124.804 38.1322 124.49 37.6699C124.341 37.4497 124.137 37.272 123.899 37.1545C123.66 37.0371 123.395 36.9839 123.13 37C122.642 36.9559 122.154 37.0835 121.751 37.3611C121.347 37.6387 121.053 38.0484 120.92 38.5198L118.3 36.74C118.473 36.3778 118.695 36.0413 118.96 35.74C119.27 35.3855 119.63 35.0787 120.03 34.8298C120.468 34.5557 120.938 34.3374 121.43 34.1799C121.981 34.0122 122.554 33.9279 123.13 33.9299C123.795 33.9266 124.453 34.0637 125.062 34.3325C125.67 34.6014 126.215 34.9959 126.66 35.49C127.095 35.9863 127.435 36.5593 127.66 37.1799C127.902 37.843 128.024 38.5441 128.02 39.25V55.71L127.93 55.74ZM124.85 50.3799V44.2998C124.47 44.5498 124.02 44.8698 123.5 45.2998C122.964 45.6936 122.469 46.1392 122.02 46.6299C121.532 47.1629 121.128 47.7664 120.82 48.4199C120.482 49.1424 120.315 49.9327 120.33 50.73C120.323 51.026 120.376 51.3204 120.487 51.5952C120.597 51.8701 120.762 52.1197 120.971 52.3291C121.18 52.5385 121.43 52.7031 121.705 52.8132C121.98 52.9234 122.274 52.9768 122.57 52.97C122.878 52.9696 123.182 52.898 123.458 52.761C123.733 52.624 123.974 52.4251 124.16 52.1799C124.599 51.7021 124.845 51.0786 124.85 50.4299V50.3799ZM133.54 55.74H130.47V28.2998L133.54 27.2998V55.76V55.74ZM146.45 62.48H143.38V54.71C143.161 55.0675 142.836 55.3473 142.45 55.51C141.911 55.7701 141.318 55.9001 140.72 55.8899C140.089 55.8927 139.465 55.7695 138.883 55.5273C138.3 55.2852 137.773 54.9291 137.33 54.48C136.859 53.9994 136.486 53.4322 136.23 52.8098C135.943 52.0986 135.804 51.3366 135.82 50.5698V34.4199H138.89V50.5698C138.884 50.8652 138.938 51.1589 139.05 51.4324C139.162 51.7059 139.329 51.9534 139.54 52.1599C139.745 52.3727 139.993 52.5404 140.267 52.6523C140.54 52.7643 140.834 52.8178 141.13 52.8098C141.725 52.8098 142.296 52.5743 142.718 52.1545C143.139 51.7347 143.377 51.1648 143.38 50.5698V34.4199H146.45V62.48V62.48ZM159.45 55.74H157.45L156.77 54.5198C156.505 54.9844 156.108 55.3603 155.63 55.5999C154.975 55.8976 154.259 56.0349 153.54 56C152.953 56.0021 152.372 55.8864 151.83 55.6599C150.67 55.187 149.74 54.279 149.24 53.1299C148.95 52.4684 148.807 51.7519 148.82 51.0298C148.803 50.0304 148.944 49.0347 149.24 48.0798C149.497 47.2832 149.857 46.5235 150.31 45.8198C150.727 45.1758 151.224 44.5877 151.79 44.0698C152.329 43.5774 152.893 43.1136 153.48 42.6799L155.09 41.51C155.568 41.1649 156.013 40.7765 156.42 40.3499V39.2798C156.434 38.7228 156.277 38.1751 155.97 37.71C155.819 37.4897 155.613 37.3122 155.373 37.1948C155.133 37.0774 154.867 37.0239 154.6 37.0398C154.114 36.9961 153.627 37.1244 153.225 37.4021C152.823 37.6798 152.531 38.0893 152.4 38.5598L149.77 36.7798C149.95 36.4195 150.175 36.0835 150.44 35.7798C150.744 35.4231 151.101 35.1162 151.5 34.8699C151.94 34.5938 152.414 34.3755 152.91 34.22C153.457 34.0522 154.027 33.9679 154.6 33.97C155.29 33.9613 155.972 34.1046 156.6 34.3899C157.189 34.6604 157.716 35.0482 158.15 35.5298C158.585 36.026 158.925 36.5994 159.15 37.22C159.392 37.883 159.514 38.5839 159.51 39.2898V55.75L159.45 55.74ZM156.37 50.3799V44.2998C155.99 44.5498 155.54 44.8698 155.02 45.2998C154.486 45.6963 153.991 46.1416 153.54 46.6299C153.056 47.1633 152.654 47.7668 152.35 48.4199C152.009 49.1417 151.838 49.9319 151.85 50.73C151.845 51.0256 151.899 51.3193 152.01 51.5935C152.12 51.8677 152.285 52.1168 152.494 52.3259C152.703 52.535 152.952 52.6999 153.226 52.8105C153.501 52.9212 153.794 52.9754 154.09 52.97C154.399 52.9667 154.703 52.8938 154.98 52.7571C155.257 52.6203 155.5 52.4231 155.69 52.1799C156.126 51.7011 156.368 51.0774 156.37 50.4299V50.3799Z" fill="white"/>
<path fill-rule="evenodd" clip-rule="evenodd" d="M50.9902 59.3601H142.07V60.5401H50.9902V59.3601Z" fill="white"/>
<path fill-rule="evenodd" clip-rule="evenodd" d="M143.51 23.26H173.81H174.4V60.54H147.87V59.36H173.22V24.44H38.65L58.77 7.64002L57.83 7.17002L37.23 24.44H6.58002V59.36H45.15V60.54H5.52002V23.26H36.41L57.83 5.27002L102.09 23.26H103.86L59.72 5.27002L143.51 23.26Z" fill="white"/>
</svg>
