<?xml version="1.0" encoding="UTF-8"?>
<svg xmlns="http://www.w3.org/2000/svg" xmlns:xlink="http://www.w3.org/1999/xlink" width="135px" height="50px" viewBox="0 0 135 50" version="1.1">
<g id="surface1">
<path style=" stroke:none;fill-rule:evenodd;fill:rgb(94.509804%,40%,0.392157%);fill-opacity:1;" d="M 4.164062 49.339844 C 3.246094 49.339844 2.367188 48.972656 1.71875 48.320312 C 1.070312 47.667969 0.703125 46.785156 0.699219 45.863281 L 0.699219 17.621094 C 0.703125 16.699219 1.070312 15.816406 1.71875 15.167969 C 2.367188 14.515625 3.246094 14.152344 4.164062 14.152344 L 26.199219 14.152344 L 41.390625 1.332031 C 41.789062 0.984375 42.261719 0.738281 42.769531 0.605469 C 43.28125 0.472656 43.816406 0.464844 44.332031 0.574219 C 44.804688 0.476562 45.292969 0.476562 45.765625 0.574219 L 108.601562 14.121094 L 131.53125 14.121094 C 132.445312 14.125 133.324219 14.488281 133.96875 15.140625 C 134.617188 15.789062 134.984375 16.671875 134.984375 17.589844 L 134.984375 45.832031 C 134.984375 46.753906 134.621094 47.636719 133.972656 48.289062 C 133.324219 48.941406 132.445312 49.308594 131.53125 49.308594 Z M 4.164062 49.339844 "/>
<path style=" stroke:none;fill-rule:nonzero;fill:rgb(100%,100%,100%);fill-opacity:1;" d="M 23.425781 38.195312 C 23.429688 38.734375 23.320312 39.269531 23.109375 39.765625 C 22.910156 40.242188 22.621094 40.679688 22.257812 41.046875 C 21.886719 41.410156 21.453125 41.703125 20.972656 41.910156 C 20.480469 42.125 19.949219 42.230469 19.414062 42.226562 L 15.402344 42.226562 L 15.402344 21.53125 L 19.414062 21.53125 C 19.949219 21.527344 20.480469 21.632812 20.972656 21.847656 C 21.453125 22.046875 21.890625 22.335938 22.257812 22.703125 C 22.621094 23.074219 22.914062 23.511719 23.109375 23.992188 C 23.320312 24.488281 23.429688 25.019531 23.425781 25.5625 Z M 21.109375 38.195312 L 21.109375 25.5625 C 21.113281 25.335938 21.070312 25.109375 20.984375 24.902344 C 20.898438 24.691406 20.769531 24.503906 20.605469 24.347656 C 20.449219 24.191406 20.261719 24.066406 20.058594 23.980469 C 19.855469 23.894531 19.632812 23.855469 19.414062 23.855469 L 17.722656 23.855469 L 17.722656 39.878906 L 19.414062 39.878906 C 19.632812 39.882812 19.855469 39.839844 20.058594 39.753906 C 20.261719 39.667969 20.449219 39.542969 20.605469 39.386719 C 20.765625 39.230469 20.894531 39.042969 20.984375 38.835938 C 21.070312 38.628906 21.113281 38.40625 21.109375 38.183594 Z M 33.109375 38.566406 C 33.121094 39.351562 32.902344 40.125 32.480469 40.785156 C 32.058594 41.445312 31.449219 41.964844 30.734375 42.28125 C 30.242188 42.488281 29.714844 42.597656 29.183594 42.597656 C 28.652344 42.597656 28.125 42.488281 27.632812 42.28125 C 27.167969 42.066406 26.75 41.765625 26.398438 41.394531 C 26.039062 41.027344 25.753906 40.589844 25.566406 40.113281 C 25.363281 39.617188 25.257812 39.082031 25.265625 38.546875 L 25.265625 29.734375 C 25.265625 28.941406 25.5 28.167969 25.933594 27.507812 C 26.371094 26.847656 26.992188 26.332031 27.714844 26.023438 C 28.210938 25.808594 28.742188 25.699219 29.277344 25.703125 C 29.8125 25.703125 30.34375 25.808594 30.839844 26.007812 C 31.316406 26.207031 31.75 26.5 32.113281 26.871094 C 32.488281 27.265625 32.777344 27.734375 32.972656 28.242188 C 33.191406 28.832031 33.300781 29.453125 33.289062 30.082031 C 33.304688 30.949219 33.210938 31.816406 33.003906 32.660156 C 32.820312 33.335938 32.519531 33.976562 32.113281 34.546875 C 31.617188 35.195312 31.007812 35.753906 30.320312 36.195312 C 29.4375 36.773438 28.527344 37.300781 27.589844 37.773438 L 27.589844 38.53125 C 27.574219 38.976562 27.730469 39.410156 28.027344 39.742188 C 28.175781 39.894531 28.355469 40.019531 28.554688 40.101562 C 28.753906 40.183594 28.964844 40.226562 29.179688 40.226562 C 29.394531 40.226562 29.605469 40.183594 29.804688 40.101562 C 30.003906 40.019531 30.183594 39.894531 30.332031 39.742188 C 30.640625 39.414062 30.804688 38.980469 30.792969 38.53125 L 30.792969 38.273438 L 33.117188 37.515625 L 33.117188 38.554688 Z M 30.960938 30.234375 C 30.992188 29.933594 30.960938 29.632812 30.875 29.34375 C 30.789062 29.054688 30.644531 28.785156 30.453125 28.554688 C 30.296875 28.398438 30.113281 28.277344 29.910156 28.195312 C 29.707031 28.113281 29.488281 28.074219 29.269531 28.074219 C 29.042969 28.070312 28.820312 28.113281 28.613281 28.199219 C 28.40625 28.285156 28.21875 28.417969 28.0625 28.582031 C 27.90625 28.738281 27.785156 28.925781 27.703125 29.128906 C 27.621094 29.332031 27.578125 29.550781 27.582031 29.773438 L 27.582031 35.128906 C 28.140625 34.859375 28.671875 34.53125 29.164062 34.152344 C 29.546875 33.859375 29.886719 33.523438 30.183594 33.144531 C 30.476562 32.75 30.6875 32.296875 30.800781 31.816406 C 30.914062 31.296875 30.964844 30.765625 30.960938 30.234375 Z M 43.101562 38.566406 C 43.105469 39.105469 43 39.640625 42.785156 40.136719 C 42.589844 40.617188 42.296875 41.054688 41.925781 41.417969 C 41.558594 41.785156 41.125 42.078125 40.652344 42.28125 C 40.15625 42.496094 39.625 42.601562 39.089844 42.597656 C 38.75 42.648438 38.402344 42.589844 38.101562 42.425781 C 37.796875 42.265625 37.550781 42.015625 37.398438 41.703125 L 37.398438 47.460938 L 35.078125 47.460938 L 35.078125 26.074219 L 36.585938 26.074219 L 37.105469 26.832031 C 37.3125 26.539062 37.609375 26.316406 37.949219 26.195312 C 38.296875 26.039062 38.671875 25.949219 39.050781 25.9375 C 39.589844 25.933594 40.121094 26.042969 40.613281 26.257812 C 41.089844 26.460938 41.523438 26.753906 41.886719 27.121094 C 42.257812 27.484375 42.550781 27.921875 42.746094 28.402344 C 42.960938 28.898438 43.066406 29.429688 43.0625 29.96875 L 43.0625 38.574219 Z M 40.777344 38.566406 L 40.777344 29.960938 C 40.777344 29.511719 40.597656 29.082031 40.28125 28.765625 C 39.964844 28.445312 39.539062 28.265625 39.089844 28.265625 C 38.867188 28.261719 38.644531 28.300781 38.4375 28.386719 C 38.230469 28.476562 38.046875 28.601562 37.890625 28.765625 C 37.734375 28.921875 37.609375 29.109375 37.527344 29.3125 C 37.441406 29.519531 37.398438 29.738281 37.398438 29.960938 L 37.398438 38.566406 C 37.394531 38.792969 37.4375 39.015625 37.519531 39.226562 C 37.605469 39.433594 37.730469 39.621094 37.890625 39.78125 C 38.046875 39.9375 38.234375 40.0625 38.441406 40.148438 C 38.644531 40.230469 38.867188 40.269531 39.089844 40.265625 C 39.3125 40.269531 39.53125 40.226562 39.734375 40.144531 C 39.9375 40.0625 40.125 39.9375 40.28125 39.78125 C 40.441406 39.625 40.570312 39.433594 40.65625 39.226562 C 40.742188 39.019531 40.785156 38.792969 40.777344 38.566406 Z M 52.695312 38.566406 C 52.699219 39.105469 52.59375 39.640625 52.386719 40.136719 C 52.183594 40.613281 51.890625 41.050781 51.527344 41.417969 C 51.15625 41.78125 50.722656 42.074219 50.246094 42.28125 C 49.75 42.496094 49.21875 42.601562 48.683594 42.597656 C 48.144531 42.601562 47.613281 42.492188 47.121094 42.28125 C 46.648438 42.074219 46.214844 41.78125 45.847656 41.417969 C 45.480469 41.050781 45.191406 40.613281 44.988281 40.136719 C 44.773438 39.640625 44.667969 39.105469 44.671875 38.566406 L 44.671875 29.757812 C 44.667969 29.21875 44.777344 28.683594 44.988281 28.1875 C 45.394531 27.222656 46.160156 26.453125 47.121094 26.046875 C 47.613281 25.832031 48.144531 25.722656 48.683594 25.726562 C 49.21875 25.722656 49.75 25.832031 50.246094 26.046875 C 51.210938 26.453125 51.976562 27.222656 52.386719 28.1875 C 52.589844 28.6875 52.695312 29.21875 52.695312 29.757812 Z M 50.378906 38.566406 L 50.378906 29.757812 C 50.378906 29.535156 50.335938 29.316406 50.25 29.109375 C 50.160156 28.90625 50.035156 28.722656 49.875 28.566406 C 49.722656 28.40625 49.535156 28.277344 49.332031 28.1875 C 49.125 28.101562 48.90625 28.058594 48.683594 28.058594 C 48.457031 28.054688 48.234375 28.097656 48.03125 28.183594 C 47.824219 28.273438 47.636719 28.402344 47.484375 28.566406 C 47.328125 28.722656 47.203125 28.910156 47.121094 29.113281 C 47.035156 29.316406 46.992188 29.535156 46.992188 29.757812 L 46.992188 38.566406 C 46.988281 38.792969 47.03125 39.015625 47.113281 39.226562 C 47.199219 39.433594 47.324219 39.621094 47.484375 39.78125 C 47.640625 39.9375 47.828125 40.0625 48.035156 40.148438 C 48.238281 40.230469 48.460938 40.269531 48.683594 40.265625 C 48.90625 40.265625 49.125 40.222656 49.332031 40.136719 C 49.539062 40.054688 49.726562 39.929688 49.882812 39.769531 C 50.039062 39.613281 50.164062 39.425781 50.25 39.21875 C 50.335938 39.011719 50.378906 38.792969 50.378906 38.566406 Z M 68.082031 42.226562 L 65.726562 42.226562 L 65.417969 39.660156 L 62.460938 39.660156 L 62.144531 42.226562 L 59.6875 42.226562 L 62.863281 21.53125 L 64.957031 21.53125 Z M 65.132812 37.476562 L 63.957031 28.386719 L 62.75 37.476562 Z M 77.953125 42.226562 L 75.628906 42.226562 L 75.628906 29.960938 C 75.628906 29.734375 75.578125 29.507812 75.480469 29.300781 C 75.386719 29.09375 75.246094 28.914062 75.070312 28.765625 C 74.734375 28.445312 74.289062 28.265625 73.828125 28.265625 C 73.355469 28.261719 72.898438 28.441406 72.554688 28.765625 C 72.378906 28.910156 72.234375 29.09375 72.136719 29.300781 C 72.039062 29.507812 71.988281 29.734375 71.988281 29.960938 L 71.988281 42.226562 L 69.671875 42.226562 L 69.671875 26.074219 L 71.21875 26.074219 L 71.730469 26.832031 C 71.945312 26.523438 72.25 26.289062 72.605469 26.160156 C 72.996094 26.011719 73.410156 25.9375 73.828125 25.9375 C 74.367188 25.9375 74.90625 26.046875 75.402344 26.257812 C 75.890625 26.460938 76.335938 26.753906 76.714844 27.121094 C 77.101562 27.484375 77.40625 27.917969 77.621094 28.402344 C 77.84375 28.894531 77.957031 29.429688 77.953125 29.96875 L 77.953125 42.234375 Z M 84.507812 40.296875 C 84.730469 40.296875 84.945312 40.242188 85.140625 40.136719 C 85.3125 40.042969 85.460938 39.914062 85.570312 39.75 L 87.148438 41.476562 C 86.839844 41.835938 86.453125 42.117188 86.015625 42.296875 C 85.570312 42.492188 85.085938 42.597656 84.597656 42.597656 C 84.097656 42.625 83.597656 42.539062 83.132812 42.347656 C 82.671875 42.152344 82.257812 41.855469 81.925781 41.476562 C 81.277344 40.664062 80.945312 39.640625 80.984375 38.597656 L 80.984375 28.121094 L 79.523438 28.121094 L 79.523438 26.074219 L 80.984375 26.074219 L 80.984375 23.136719 L 83.308594 22.378906 L 83.308594 26.089844 L 86.371094 26.089844 L 86.371094 28.136719 L 83.308594 28.136719 L 83.308594 38.613281 C 83.308594 39.742188 83.707031 40.3125 84.507812 40.3125 Z M 96.484375 42.226562 L 94.9375 42.226562 L 94.417969 41.304688 C 94.222656 41.65625 93.921875 41.945312 93.558594 42.121094 C 92.644531 42.507812 91.617188 42.527344 90.691406 42.167969 C 90.269531 41.988281 89.886719 41.730469 89.558594 41.410156 C 89.214844 41.070312 88.9375 40.671875 88.746094 40.226562 C 88.527344 39.726562 88.417969 39.183594 88.429688 38.636719 C 88.414062 37.878906 88.523438 37.125 88.746094 36.402344 C 88.9375 35.796875 89.207031 35.222656 89.546875 34.6875 C 89.859375 34.203125 90.238281 33.757812 90.660156 33.363281 C 91.09375 32.984375 91.542969 32.632812 92.011719 32.304688 L 93.234375 31.417969 C 93.59375 31.15625 93.929688 30.859375 94.234375 30.539062 L 94.234375 29.726562 C 94.246094 29.304688 94.125 28.886719 93.890625 28.539062 C 93.777344 28.371094 93.621094 28.238281 93.445312 28.148438 C 93.261719 28.058594 93.0625 28.019531 92.863281 28.03125 C 92.496094 27.996094 92.128906 28.09375 91.824219 28.304688 C 91.519531 28.515625 91.296875 28.824219 91.195312 29.183594 L 89.21875 27.832031 C 89.351562 27.558594 89.519531 27.304688 89.71875 27.074219 C 89.953125 26.808594 90.222656 26.574219 90.527344 26.386719 C 90.855469 26.179688 91.210938 26.011719 91.582031 25.894531 C 91.996094 25.765625 92.429688 25.703125 92.863281 25.703125 C 93.363281 25.703125 93.859375 25.804688 94.320312 26.007812 C 94.777344 26.214844 95.191406 26.511719 95.527344 26.886719 C 95.855469 27.261719 96.109375 27.695312 96.28125 28.167969 C 96.460938 28.667969 96.554688 29.199219 96.550781 29.734375 L 96.550781 42.203125 Z M 94.160156 38.167969 L 94.160156 33.558594 C 93.875 33.75 93.535156 33.992188 93.140625 34.316406 C 92.738281 34.617188 92.363281 34.953125 92.027344 35.324219 C 91.660156 35.730469 91.355469 36.1875 91.121094 36.683594 C 90.867188 37.230469 90.742188 37.828125 90.75 38.433594 C 90.746094 38.65625 90.785156 38.878906 90.871094 39.085938 C 90.953125 39.296875 91.078125 39.484375 91.234375 39.644531 C 91.394531 39.800781 91.582031 39.925781 91.789062 40.011719 C 91.996094 40.09375 92.21875 40.132812 92.441406 40.128906 C 92.671875 40.128906 92.902344 40.074219 93.109375 39.96875 C 93.316406 39.867188 93.5 39.714844 93.640625 39.53125 C 93.972656 39.167969 94.15625 38.695312 94.160156 38.203125 Z M 100.714844 42.226562 L 98.398438 42.226562 L 98.398438 21.4375 L 100.714844 20.683594 L 100.714844 42.242188 Z M 110.449219 47.332031 L 108.136719 47.332031 L 108.136719 41.445312 C 107.96875 41.71875 107.726562 41.929688 107.433594 42.054688 C 107.027344 42.25 106.582031 42.347656 106.128906 42.339844 C 105.652344 42.34375 105.183594 42.25 104.746094 42.066406 C 104.304688 41.882812 103.90625 41.613281 103.574219 41.273438 C 103.21875 40.910156 102.9375 40.480469 102.742188 40.007812 C 102.527344 39.46875 102.421875 38.890625 102.433594 38.308594 L 102.433594 26.074219 L 104.75 26.074219 L 104.75 38.308594 C 104.746094 38.535156 104.785156 38.757812 104.871094 38.964844 C 104.953125 39.171875 105.082031 39.359375 105.238281 39.515625 C 105.394531 39.675781 105.582031 39.804688 105.789062 39.886719 C 105.992188 39.972656 106.214844 40.011719 106.4375 40.007812 C 106.886719 40.007812 107.316406 39.828125 107.636719 39.511719 C 107.953125 39.191406 108.132812 38.761719 108.136719 38.308594 L 108.136719 26.074219 L 110.449219 26.074219 Z M 120.253906 42.226562 L 118.746094 42.226562 L 118.234375 41.304688 C 118.035156 41.65625 117.734375 41.941406 117.375 42.121094 C 116.878906 42.347656 116.339844 42.449219 115.796875 42.425781 C 115.355469 42.425781 114.917969 42.339844 114.507812 42.167969 C 113.632812 41.808594 112.933594 41.121094 112.554688 40.25 C 112.335938 39.75 112.230469 39.207031 112.238281 38.660156 C 112.226562 37.902344 112.332031 37.148438 112.554688 36.425781 C 112.75 35.820312 113.019531 35.246094 113.363281 34.710938 C 113.675781 34.222656 114.050781 33.777344 114.476562 33.386719 C 114.886719 33.011719 115.308594 32.660156 115.753906 32.332031 L 116.96875 31.445312 C 117.328125 31.183594 117.664062 30.890625 117.96875 30.566406 L 117.96875 29.757812 C 117.980469 29.335938 117.863281 28.921875 117.632812 28.566406 C 117.515625 28.402344 117.363281 28.265625 117.179688 28.179688 C 117 28.089844 116.800781 28.046875 116.597656 28.058594 C 116.230469 28.027344 115.863281 28.125 115.5625 28.335938 C 115.257812 28.546875 115.039062 28.855469 114.9375 29.210938 L 112.953125 27.863281 C 113.089844 27.589844 113.261719 27.335938 113.460938 27.105469 C 113.691406 26.835938 113.957031 26.601562 114.261719 26.417969 C 114.589844 26.207031 114.949219 26.042969 115.324219 25.925781 C 115.734375 25.796875 116.164062 25.734375 116.597656 25.734375 C 117.117188 25.726562 117.632812 25.835938 118.105469 26.054688 C 118.550781 26.257812 118.949219 26.550781 119.273438 26.917969 C 119.601562 27.292969 119.859375 27.726562 120.03125 28.195312 C 120.210938 28.699219 120.304688 29.230469 120.300781 29.765625 L 120.300781 42.234375 Z M 117.933594 38.167969 L 117.933594 33.558594 C 117.644531 33.75 117.308594 33.992188 116.914062 34.316406 C 116.511719 34.617188 116.136719 34.957031 115.796875 35.324219 C 115.433594 35.730469 115.128906 36.1875 114.902344 36.683594 C 114.644531 37.230469 114.515625 37.828125 114.523438 38.433594 C 114.519531 38.65625 114.5625 38.878906 114.644531 39.085938 C 114.726562 39.292969 114.851562 39.484375 115.007812 39.640625 C 115.167969 39.800781 115.355469 39.925781 115.5625 40.007812 C 115.769531 40.09375 115.988281 40.132812 116.214844 40.128906 C 116.445312 40.125 116.675781 40.070312 116.882812 39.96875 C 117.09375 39.863281 117.277344 39.714844 117.417969 39.53125 C 117.75 39.167969 117.929688 38.695312 117.933594 38.203125 Z M 117.933594 38.167969 "/>
<path style=" stroke:none;fill-rule:evenodd;fill:rgb(100%,100%,100%);fill-opacity:1;" d="M 38.457031 44.96875 L 107.148438 44.96875 L 107.148438 45.863281 L 38.457031 45.863281 Z M 38.457031 44.96875 "/>
<path style=" stroke:none;fill-rule:evenodd;fill:rgb(100%,100%,100%);fill-opacity:1;" d="M 108.234375 17.621094 L 131.53125 17.621094 L 131.53125 45.863281 L 111.523438 45.863281 L 111.523438 44.96875 L 130.640625 44.96875 L 130.640625 18.515625 L 29.148438 18.515625 L 44.324219 5.789062 L 43.613281 5.433594 L 28.078125 18.515625 L 4.960938 18.515625 L 4.960938 44.96875 L 34.050781 44.96875 L 34.050781 45.863281 L 4.164062 45.863281 L 4.164062 17.621094 L 27.460938 17.621094 L 43.613281 3.992188 L 76.996094 17.621094 L 78.332031 17.621094 L 45.039062 3.992188 Z M 108.234375 17.621094 "/>
</g>
</svg>
